<?xml version="1.0" encoding="UTF-8" standalone="no"?>
<!-- Svg Vector Icons : http://www.onlinewebfonts.com/icon -->

<svg
   xmlns:dc="http://purl.org/dc/elements/1.1/"
   xmlns:cc="http://creativecommons.org/ns#"
   xmlns:rdf="http://www.w3.org/1999/02/22-rdf-syntax-ns#"
   xmlns:svg="http://www.w3.org/2000/svg"
   xmlns="http://www.w3.org/2000/svg"
   xmlns:sodipodi="http://sodipodi.sourceforge.net/DTD/sodipodi-0.dtd"
   xmlns:inkscape="http://www.inkscape.org/namespaces/inkscape"
   version="1.1"
   x="0px"
   y="0px"
   viewBox="0 0 1000 1000"
   enable-background="new 0 0 1000 1000"
   xml:space="preserve"
   id="svg8"
   sodipodi:docname="acceleration.svg"
   inkscape:version="0.92.4 (5da689c313, 2019-01-14)"><defs
   id="defs12" /><sodipodi:namedview
   pagecolor="#ffffff"
   bordercolor="#666666"
   borderopacity="1"
   objecttolerance="10"
   gridtolerance="10"
   guidetolerance="10"
   inkscape:pageopacity="0"
   inkscape:pageshadow="2"
   inkscape:window-width="1152"
   inkscape:window-height="913"
   id="namedview10"
   showgrid="false"
   inkscape:zoom="0.236"
   inkscape:cx="500"
   inkscape:cy="161.01695"
   inkscape:window-x="2156"
   inkscape:window-y="150"
   inkscape:window-maximized="0"
   inkscape:current-layer="svg8" />
<metadata
   id="metadata2"> Svg Vector Icons : http://www.onlinewebfonts.com/icon <rdf:RDF><cc:Work
     rdf:about=""><dc:format>image/svg+xml</dc:format><dc:type
       rdf:resource="http://purl.org/dc/dcmitype/StillImage" /></cc:Work></rdf:RDF></metadata>
<g
   id="g6"
   style="fill:#ff7f2a"><path
     d="M377.5,459.2l163.3-326.7H418.3l-40.8,163.3h-40.8l-40.8-163.3H173.3l163.3,326.7H377.5z M936.6,133.1l-69.7-69.7L91.7,838.6V10H10v980h980v-81.7H161.3L936.6,133.1z M704.2,745v-40.8h-81.7V602.1c0-11.3-9.1-20.4-20.4-20.4h-40.8c-11.3,0-20.4,9.1-20.4,20.4v102.1H500V745h40.8v81.7c0,11.2,29.5,40.8,40.8,40.8h122.5v-40.8c0,0-81.7,7.4-81.7,0V745L704.2,745L704.2,745z M969.6,377.5H745v40.8h163.3v40.8H765.4c-11.3,0-20.4,9.1-20.4,20.4v122.5c0,11.2,9.1,20.4,20.4,20.4h204.2c11.3,0,20.4-9.2,20.4-20.4V397.9C990,386.6,980.9,377.5,969.6,377.5z M908.3,581.7h-81.7V500h81.7V581.7z"
     id="path4"
     style="fill:#ff7f2a" /></g>
</svg>