<?xml version="1.0" encoding="UTF-8" standalone="no"?>
<svg
   xmlns:dc="http://purl.org/dc/elements/1.1/"
   xmlns:cc="http://creativecommons.org/ns#"
   xmlns:rdf="http://www.w3.org/1999/02/22-rdf-syntax-ns#"
   xmlns:svg="http://www.w3.org/2000/svg"
   xmlns="http://www.w3.org/2000/svg"
   xmlns:sodipodi="http://sodipodi.sourceforge.net/DTD/sodipodi-0.dtd"
   xmlns:inkscape="http://www.inkscape.org/namespaces/inkscape"
   viewBox="0 0 24 24"
   version="1.1"
   id="svg4"
   sodipodi:docname="cohesion.svg"
   inkscape:version="0.92.4 (5da689c313, 2019-01-14)">
  <metadata
     id="metadata10">
    <rdf:RDF>
      <cc:Work
         rdf:about="">
        <dc:format>image/svg+xml</dc:format>
        <dc:type
           rdf:resource="http://purl.org/dc/dcmitype/StillImage" />
      </cc:Work>
    </rdf:RDF>
  </metadata>
  <defs
     id="defs8" />
  <sodipodi:namedview
     pagecolor="#ffffff"
     bordercolor="#666666"
     borderopacity="1"
     objecttolerance="10"
     gridtolerance="10"
     guidetolerance="10"
     inkscape:pageopacity="0"
     inkscape:pageshadow="2"
     inkscape:window-width="1047"
     inkscape:window-height="666"
     id="namedview6"
     showgrid="false"
     inkscape:zoom="9.8333333"
     inkscape:cx="12"
     inkscape:cy="12"
     inkscape:window-x="2514"
     inkscape:window-y="267"
     inkscape:window-maximized="0"
     inkscape:current-layer="svg4" />
  <path
     d="M10.38,13.08A1,1,0,0,0,10,13H6a1,1,0,0,0,0,2H7.59l-5.3,5.29a1,1,0,0,0,0,1.42,1,1,0,0,0,1.42,0L9,16.41V18a1,1,0,0,0,2,0V14a1,1,0,0,0-.08-.38A1,1,0,0,0,10.38,13.08ZM10,5A1,1,0,0,0,9,6V7.59L3.71,2.29A1,1,0,0,0,2.29,3.71L7.59,9H6a1,1,0,0,0,0,2h4a1,1,0,0,0,.38-.08,1,1,0,0,0,.54-.54A1,1,0,0,0,11,10V6A1,1,0,0,0,10,5Zm3.62,5.92A1,1,0,0,0,14,11h4a1,1,0,0,0,0-2H16.41l5.3-5.29a1,1,0,1,0-1.42-1.42L15,7.59V6a1,1,0,0,0-2,0v4a1,1,0,0,0,.08.38A1,1,0,0,0,13.62,10.92ZM16.41,15H18a1,1,0,0,0,0-2H14a1,1,0,0,0-.38.08,1,1,0,0,0-.54.54A1,1,0,0,0,13,14v4a1,1,0,0,0,2,0V16.41l5.29,5.3a1,1,0,0,0,1.42,0,1,1,0,0,0,0-1.42Z"
     id="path2"
     style="fill:#f9f9f9" />
</svg>
