<?xml version="1.0" encoding="UTF-8" standalone="no"?>
<!-- Generator: Adobe Illustrator 16.0.0, SVG Export Plug-In . SVG Version: 6.00 Build 0)  -->

<svg
   xmlns:dc="http://purl.org/dc/elements/1.1/"
   xmlns:cc="http://creativecommons.org/ns#"
   xmlns:rdf="http://www.w3.org/1999/02/22-rdf-syntax-ns#"
   xmlns:svg="http://www.w3.org/2000/svg"
   xmlns="http://www.w3.org/2000/svg"
   xmlns:sodipodi="http://sodipodi.sourceforge.net/DTD/sodipodi-0.dtd"
   xmlns:inkscape="http://www.inkscape.org/namespaces/inkscape"
   version="1.1"
   id="Capa_1"
   x="0px"
   y="0px"
   width="276.167px"
   height="276.167px"
   viewBox="0 0 276.167 276.167"
   style="enable-background:new 0 0 276.167 276.167;"
   xml:space="preserve"
   sodipodi:docname="dots-menu.svg"
   inkscape:version="0.92.4 (5da689c313, 2019-01-14)"><metadata
   id="metadata59"><rdf:RDF><cc:Work
       rdf:about=""><dc:format>image/svg+xml</dc:format><dc:type
         rdf:resource="http://purl.org/dc/dcmitype/StillImage" /></cc:Work></rdf:RDF></metadata><defs
   id="defs57" /><sodipodi:namedview
   pagecolor="#ffffff"
   bordercolor="#666666"
   borderopacity="1"
   objecttolerance="10"
   gridtolerance="10"
   guidetolerance="10"
   inkscape:pageopacity="0"
   inkscape:pageshadow="2"
   inkscape:window-width="1392"
   inkscape:window-height="676"
   id="namedview55"
   showgrid="false"
   inkscape:zoom="0.85455542"
   inkscape:cx="138.0835"
   inkscape:cy="184.89146"
   inkscape:window-x="2323"
   inkscape:window-y="420"
   inkscape:window-maximized="0"
   inkscape:current-layer="Capa_1" />
<g
   id="g22"
   style="fill:#2affd5">
	<g
   id="g20"
   style="fill:#2affd5">
		<path
   d="M33.144,2.471C15.336,2.471,0.85,16.958,0.85,34.765s14.48,32.293,32.294,32.293s32.294-14.486,32.294-32.293    S50.951,2.471,33.144,2.471z"
   id="path2"
   style="fill:#2affd5" />
		<path
   d="M137.663,2.471c-17.807,0-32.294,14.487-32.294,32.294s14.487,32.293,32.294,32.293c17.808,0,32.297-14.486,32.297-32.293    S155.477,2.471,137.663,2.471z"
   id="path4"
   style="fill:#2affd5" />
		<path
   d="M243.873,67.059c17.804,0,32.294-14.486,32.294-32.293S261.689,2.471,243.873,2.471s-32.294,14.487-32.294,32.294    S226.068,67.059,243.873,67.059z"
   id="path6"
   style="fill:#2affd5" />
		<path
   d="M32.3,170.539c17.807,0,32.297-14.483,32.297-32.293c0-17.811-14.49-32.297-32.297-32.297S0,120.436,0,138.246    C0,156.056,14.493,170.539,32.3,170.539z"
   id="path8"
   style="fill:#2affd5" />
		<path
   d="M136.819,170.539c17.804,0,32.294-14.483,32.294-32.293c0-17.811-14.478-32.297-32.294-32.297    c-17.813,0-32.294,14.486-32.294,32.297C104.525,156.056,119.012,170.539,136.819,170.539z"
   id="path10"
   style="fill:#2affd5" />
		<path
   d="M243.038,170.539c17.811,0,32.294-14.483,32.294-32.293c0-17.811-14.483-32.297-32.294-32.297    s-32.306,14.486-32.306,32.297C210.732,156.056,225.222,170.539,243.038,170.539z"
   id="path12"
   style="fill:#2affd5" />
		<path
   d="M33.039,209.108c-17.807,0-32.3,14.483-32.3,32.294c0,17.804,14.493,32.293,32.3,32.293s32.293-14.482,32.293-32.293    S50.846,209.108,33.039,209.108z"
   id="path14"
   style="fill:#2affd5" />
		<path
   d="M137.564,209.108c-17.808,0-32.3,14.483-32.3,32.294c0,17.804,14.487,32.293,32.3,32.293    c17.804,0,32.293-14.482,32.293-32.293S155.368,209.108,137.564,209.108z"
   id="path16"
   style="fill:#2affd5" />
		<path
   d="M243.771,209.108c-17.804,0-32.294,14.483-32.294,32.294c0,17.804,14.49,32.293,32.294,32.293    c17.811,0,32.294-14.482,32.294-32.293S261.575,209.108,243.771,209.108z"
   id="path18"
   style="fill:#2affd5" />
	</g>
</g>
<g
   id="g24">
</g>
<g
   id="g26">
</g>
<g
   id="g28">
</g>
<g
   id="g30">
</g>
<g
   id="g32">
</g>
<g
   id="g34">
</g>
<g
   id="g36">
</g>
<g
   id="g38">
</g>
<g
   id="g40">
</g>
<g
   id="g42">
</g>
<g
   id="g44">
</g>
<g
   id="g46">
</g>
<g
   id="g48">
</g>
<g
   id="g50">
</g>
<g
   id="g52">
</g>
</svg>