<?xml version="1.0" encoding="UTF-8" standalone="no"?>
<!-- Generator: Adobe Illustrator 19.0.0, SVG Export Plug-In . SVG Version: 6.00 Build 0)  -->

<svg
   xmlns:dc="http://purl.org/dc/elements/1.1/"
   xmlns:cc="http://creativecommons.org/ns#"
   xmlns:rdf="http://www.w3.org/1999/02/22-rdf-syntax-ns#"
   xmlns:svg="http://www.w3.org/2000/svg"
   xmlns="http://www.w3.org/2000/svg"
   xmlns:sodipodi="http://sodipodi.sourceforge.net/DTD/sodipodi-0.dtd"
   xmlns:inkscape="http://www.inkscape.org/namespaces/inkscape"
   version="1.1"
   id="Layer_1"
   x="0px"
   y="0px"
   viewBox="0 0 512 512"
   style="enable-background:new 0 0 512 512;"
   xml:space="preserve"
   sodipodi:docname="langton.svg"
   inkscape:version="0.92.4 (5da689c313, 2019-01-14)"><metadata
   id="metadata43"><rdf:RDF><cc:Work
       rdf:about=""><dc:format>image/svg+xml</dc:format><dc:type
         rdf:resource="http://purl.org/dc/dcmitype/StillImage" /></cc:Work></rdf:RDF></metadata><defs
   id="defs41" /><sodipodi:namedview
   pagecolor="#ffffff"
   bordercolor="#666666"
   borderopacity="1"
   objecttolerance="10"
   gridtolerance="10"
   guidetolerance="10"
   inkscape:pageopacity="0"
   inkscape:pageshadow="2"
   inkscape:window-width="1447"
   inkscape:window-height="774"
   id="namedview39"
   showgrid="false"
   inkscape:zoom="0.4609375"
   inkscape:cx="-82.440678"
   inkscape:cy="256"
   inkscape:window-x="2176"
   inkscape:window-y="234"
   inkscape:window-maximized="0"
   inkscape:current-layer="Layer_1" />
<g
   id="g6"
   style="fill:#f9f9f9"
   transform="rotate(90,256,256)">
	<g
   id="g4"
   style="fill:#f9f9f9">
		<path
   d="m 448,246.857 h -34.039 l -43.538,-26.121 c -1.426,-0.859 -3.045,-1.307 -4.709,-1.307 h -55.963 c 0.722,-2.953 1.106,-6.016 1.106,-9.143 0,-3.611 -0.558,-7.113 -1.518,-10.487 l 39.881,-7.982 c 2.377,-0.466 4.471,-1.874 5.815,-3.886 l 36.571,-54.857 c 0.997,-1.499 1.536,-3.273 1.536,-5.074 V 57.627 l 16.75,-25.125 c 2.807,-4.206 1.673,-9.883 -2.533,-12.681 -4.215,-2.807 -9.883,-1.673 -12.681,2.533 l -18.286,27.429 c -0.997,1.499 -1.536,3.273 -1.536,5.074 v 70.373 l -32.942,49.408 -41.975,8.393 c -2.295,-2.56 -4.891,-4.91 -7.762,-7.022 16.576,-9.253 27.822,-26.953 27.822,-47.25 v -19.803 c 0,-16.247 -7.232,-30.802 -18.606,-40.731 C 312.448,61.925 320,50.176 320,36.571 320,16.402 303.598,0 283.429,0 c -5.056,0 -9.143,4.096 -9.143,9.143 0,5.047 4.087,9.143 9.143,9.143 10.085,0 18.286,8.201 18.286,18.286 0,10.085 -8.201,18.286 -18.286,18.286 -1.81,0 -3.401,0.658 -4.818,1.573 -4.087,-0.997 -8.32,-1.573 -12.699,-1.573 H 246.09 c -4.379,0 -8.613,0.576 -12.699,1.573 -1.417,-0.914 -3.008,-1.573 -4.818,-1.573 -10.085,0 -18.286,-8.201 -18.286,-18.286 0,-10.085 8.201,-18.286 18.286,-18.286 5.056,0 9.143,-4.096 9.143,-9.143 C 237.716,4.096 233.629,0 228.573,0 208.402,0 192,16.402 192,36.571 c 0,13.605 7.552,25.353 18.606,31.653 C 199.232,78.153 192,92.709 192,108.955 v 19.803 c 0,20.297 11.246,37.998 27.822,47.25 -2.871,2.112 -5.467,4.462 -7.762,7.022 l -41.975,-8.393 -32.942,-49.408 V 54.857 c 0,-1.801 -0.539,-3.575 -1.536,-5.074 L 117.321,22.354 c -2.798,-4.206 -8.466,-5.339 -12.681,-2.533 -4.206,2.798 -5.339,8.475 -2.533,12.681 l 16.75,25.125 V 128 c 0,1.801 0.539,3.575 1.536,5.074 l 36.571,54.857 c 1.344,2.011 3.438,3.419 5.815,3.886 l 39.881,7.982 c -0.96,3.374 -1.518,6.875 -1.518,10.487 0,3.127 0.384,6.19 1.106,9.143 h -55.963 c -1.664,0 -3.282,0.448 -4.709,1.307 L 98.038,246.857 H 64 c -5.056,0 -9.143,4.096 -9.143,9.143 0,5.047 4.087,9.143 9.143,9.143 h 36.571 c 1.664,0 3.282,-0.448 4.709,-1.307 l 43.538,-26.121 h 61.467 c 0.585,0 1.088,-0.229 1.637,-0.329 4.471,5.029 10.121,9.271 16.649,12.425 v 10.313 l -96.338,61.303 c -2.139,1.362 -3.611,3.538 -4.069,6.034 l -26.917,143.506 -25.426,25.426 c -3.575,3.575 -3.575,9.353 0,12.928 1.783,1.783 4.123,2.679 6.464,2.679 2.341,0 4.681,-0.896 6.464,-2.679 l 27.429,-27.429 c 1.307,-1.307 2.176,-2.971 2.514,-4.782 L 145.398,334.728 228.571,281.8 v 25.298 c -26.77,10.88 -45.714,37.129 -45.714,67.758 v 36.571 c 0,40.329 32.814,73.143 73.143,73.143 40.329,0 73.143,-32.814 73.143,-73.143 v -36.571 c 0,-30.629 -18.944,-56.878 -45.714,-67.758 V 281.8 l 83.173,52.928 26.706,142.382 c 0.338,1.81 1.207,3.474 2.514,4.782 l 27.429,27.429 c 1.783,1.783 4.123,2.679 6.464,2.679 2.341,0 4.681,-0.896 6.464,-2.679 3.575,-3.575 3.575,-9.353 0,-12.928 L 410.753,470.967 383.836,327.461 c -0.457,-2.496 -1.929,-4.672 -4.069,-6.034 L 283.429,260.124 V 249.81 c 6.528,-3.154 12.178,-7.397 16.649,-12.425 0.549,0.101 1.051,0.329 1.637,0.329 h 61.467 l 43.538,26.121 c 1.426,0.859 3.045,1.307 4.709,1.307 H 448 c 5.056,0 9.143,-4.096 9.143,-9.143 0,-5.047 -4.087,-9.142 -9.143,-9.142 z"
   id="path2"
   style="fill:#f9f9f9"
   inkscape:connector-curvature="0" />
	</g>
</g>
<g
   id="g8">
</g>
<g
   id="g10">
</g>
<g
   id="g12">
</g>
<g
   id="g14">
</g>
<g
   id="g16">
</g>
<g
   id="g18">
</g>
<g
   id="g20">
</g>
<g
   id="g22">
</g>
<g
   id="g24">
</g>
<g
   id="g26">
</g>
<g
   id="g28">
</g>
<g
   id="g30">
</g>
<g
   id="g32">
</g>
<g
   id="g34">
</g>
<g
   id="g36">
</g>
</svg>