<?xml version="1.0" encoding="UTF-8" standalone="no"?>
<!-- Generator: Adobe Illustrator 16.0.0, SVG Export Plug-In . SVG Version: 6.00 Build 0)  -->

<svg
   xmlns:dc="http://purl.org/dc/elements/1.1/"
   xmlns:cc="http://creativecommons.org/ns#"
   xmlns:rdf="http://www.w3.org/1999/02/22-rdf-syntax-ns#"
   xmlns:svg="http://www.w3.org/2000/svg"
   xmlns="http://www.w3.org/2000/svg"
   xmlns:sodipodi="http://sodipodi.sourceforge.net/DTD/sodipodi-0.dtd"
   xmlns:inkscape="http://www.inkscape.org/namespaces/inkscape"
   version="1.1"
   id="Capa_1"
   x="0px"
   y="0px"
   width="381.496px"
   height="381.496px"
   viewBox="0 0 381.496 381.496"
   style="enable-background:new 0 0 381.496 381.496;"
   xml:space="preserve"
   sodipodi:docname="raw-fish.svg"
   inkscape:version="0.92.4 (5da689c313, 2019-01-14)"><metadata
   id="metadata46"><rdf:RDF><cc:Work
       rdf:about=""><dc:format>image/svg+xml</dc:format><dc:type
         rdf:resource="http://purl.org/dc/dcmitype/StillImage" /></cc:Work></rdf:RDF></metadata><defs
   id="defs44" /><sodipodi:namedview
   pagecolor="#ffffff"
   bordercolor="#666666"
   borderopacity="1"
   objecttolerance="10"
   gridtolerance="10"
   guidetolerance="10"
   inkscape:pageopacity="0"
   inkscape:pageshadow="2"
   inkscape:window-width="1067"
   inkscape:window-height="603"
   id="namedview42"
   showgrid="false"
   inkscape:zoom="0.61861723"
   inkscape:cx="-61.427323"
   inkscape:cy="255.40834"
   inkscape:window-x="2717"
   inkscape:window-y="371"
   inkscape:window-maximized="0"
   inkscape:current-layer="Capa_1" />
<g
   id="g9"
   style="fill:#f2f2f2"
   transform="matrix(-1,0,0,1,381.49569,0)">
	<g
   id="g7"
   style="fill:#f2f2f2">
		<g
   id="Layer_5_13_"
   style="fill:#f2f2f2">
			<g
   id="g4"
   style="fill:#f2f2f2">
				<path
   d="m 353.165,182.381 c 1.217,-2.613 9.533,-13.636 17.062,-25.062 0.007,-0.008 0.013,-0.016 0.017,-0.023 1.699,-2.578 3.355,-5.175 4.885,-7.702 0.043,-0.071 0.086,-0.143 0.129,-0.214 0.248,-0.412 17.859,-28.646 -7.225,-17.212 0,0.002 -0.002,0.005 -0.004,0.007 -4.713,2.417 -10.707,6.021 -18.244,11.072 -16.441,11.021 -49.885,27.154 -49.885,27.154 0,0 -5.82,3.144 -9.658,0.749 -19.396,-12.1 -47.656,-33.594 -84.912,-45.562 -0.621,-0.2 -1.408,-0.673 -0.338,-1.664 l 15.955,-11.158 c 0,0 1.25,-1.08 -0.355,-1.602 -7.896,-2.573 -40.783,-13.601 -69.24,-3.462 -5.797,2.065 -10.555,3.761 -14.467,5.155 -1.682,0.6 -3.391,1.305 -6.799,1.726 C 52.482,117.237 0,174.203 0,196.737 c 0,15.123 8.154,25.271 37.947,39.378 0.598,-0.095 5.146,3.17 15.137,0.168 2.678,-0.805 21.697,-7.968 22.453,-8.291 0.758,-0.346 1.25,-0.517 1.564,-0.466 0.404,0.064 0.701,0.962 0.699,1.144 -0.063,5.387 -10.16,9.75 -15.893,14.537 -0.984,0.459 -1.248,2.744 0.475,3.484 0.002,0 20.246,10.854 52.307,14.229 2.592,0.273 36.34,21.897 70.371,16.096 17.999,-3.069 26.564,-4.119 30.473,-5.197 3.412,-0.94 1.783,-2.022 1.783,-2.022 l -17.059,-13.592 c -1.155,-1.281 -0.221,-2.265 0.746,-2.539 37.882,-10.779 67.834,-27.771 85.672,-42.328 2.402,-1.961 8.645,2.701 13.102,4.953 14.801,7.477 76.238,32.803 81.301,27.442 0.436,-0.452 0.467,-1.125 0.023,-2.05 -8.645,-18.159 -39.891,-33.648 -27.936,-59.302 z m -290.33,-1.749 c -5.465,0 -9.895,-4.512 -9.895,-10.077 0,-5.565 4.43,-10.076 9.895,-10.076 5.465,0 9.896,4.511 9.896,10.076 0,5.565 -4.431,10.077 -9.896,10.077 z m 44.283,57.333 c -0.609,0.547 -1.164,1.373 -0.842,0.185 0,0 15.426,-23.21 17.426,-53.211 1.498,-22.484 -13.482,-50.02 -13.482,-50.02 0,0 0.029,-0.804 0.555,-0.169 5.333,6.45 57.843,47.938 -3.657,103.215 z"
   id="path2"
   style="fill:#f2f2f2"
   inkscape:connector-curvature="0" />
			</g>
		</g>
	</g>
</g>
<g
   id="g11">
</g>
<g
   id="g13">
</g>
<g
   id="g15">
</g>
<g
   id="g17">
</g>
<g
   id="g19">
</g>
<g
   id="g21">
</g>
<g
   id="g23">
</g>
<g
   id="g25">
</g>
<g
   id="g27">
</g>
<g
   id="g29">
</g>
<g
   id="g31">
</g>
<g
   id="g33">
</g>
<g
   id="g35">
</g>
<g
   id="g37">
</g>
<g
   id="g39">
</g>
</svg>