<?xml version="1.0" encoding="UTF-8" standalone="no"?>
<svg
   xmlns:dc="http://purl.org/dc/elements/1.1/"
   xmlns:cc="http://creativecommons.org/ns#"
   xmlns:rdf="http://www.w3.org/1999/02/22-rdf-syntax-ns#"
   xmlns:svg="http://www.w3.org/2000/svg"
   xmlns="http://www.w3.org/2000/svg"
   xmlns:sodipodi="http://sodipodi.sourceforge.net/DTD/sodipodi-0.dtd"
   xmlns:inkscape="http://www.inkscape.org/namespaces/inkscape"
   version="1.1"
   id="Layer_1"
   x="0px"
   y="0px"
   width="92px"
   height="92px"
   viewBox="0 0 92 92"
   xml:space="preserve"
   sodipodi:docname="separation.svg"
   inkscape:version="0.92.4 (5da689c313, 2019-01-14)"><defs
     id="defs8" /><sodipodi:namedview
     pagecolor="#ffffff"
     bordercolor="#666666"
     borderopacity="1"
     objecttolerance="10"
     gridtolerance="10"
     guidetolerance="10"
     inkscape:pageopacity="0"
     inkscape:pageshadow="2"
     inkscape:window-width="1257"
     inkscape:window-height="886"
     id="namedview6"
     showgrid="false"
     inkscape:zoom="3.6277652"
     inkscape:cx="-1.4607955"
     inkscape:cy="39.763289"
     inkscape:window-x="2385"
     inkscape:window-y="284"
     inkscape:window-maximized="0"
     inkscape:current-layer="Layer_1" /><path
     id="XMLID_1120_"
     d="M 88.346089,7.5035553 V 26.751778 c 0,2.117304 -1.73234,3.849644 -3.849644,3.849644 -2.117305,0 -3.849645,-1.73234 -3.849645,-3.849644 V 16.838943 L 58.318862,39.166881 c -0.769929,0.769929 -1.73234,1.154893 -2.694751,1.154893 -0.962411,0 -1.924822,-0.384964 -2.694751,-1.154893 -1.539858,-1.539858 -1.539858,-3.945886 0,-5.485743 L 75.161057,11.3532 h -9.912835 c -2.117304,0 -3.849644,-1.7323403 -3.849644,-3.8496447 0,-2.1173045 1.73234,-3.8496445 3.849644,-3.8496445 h 19.248223 c 1.058652,0 2.021063,0.3849644 2.694751,1.1548933 0.769929,0.6736878 1.154893,1.6360989 1.154893,2.6947512 z M 84.496445,61.398578 c -2.117305,0 -3.849645,1.73234 -3.849645,3.849644 v 9.912835 L 58.703827,53.410566 c -1.539858,-1.539858 -4.042127,-1.539858 -5.581985,0 -1.539858,1.539857 -1.539858,3.945885 -0.09624,5.485743 L 74.776092,80.6468 h -9.912834 c -2.117305,0 -3.849645,1.73234 -3.849645,3.849645 0,2.117304 1.73234,3.849644 3.849645,3.849644 H 84.11148 c 1.058653,0 2.213546,-0.384964 2.887234,-1.154893 0.769929,-0.769929 1.347375,-1.73234 1.347375,-2.694751 V 65.248222 c 0,-2.117304 -1.73234,-3.849644 -3.849644,-3.849644 z M 33.296173,53.218083 11.3532,75.161057 v -9.912835 c 0,-2.117304 -1.7323403,-3.849644 -3.8496447,-3.849644 -2.1173045,0 -3.8496445,1.73234 -3.8496445,3.849644 v 19.248223 c 0,1.058652 0.3849644,2.021063 1.1548933,2.694751 0.7699289,0.769929 1.73234,1.154893 2.7909923,1.154893 H 26.848019 c 2.117304,0 3.849644,-1.73234 3.849644,-3.849644 0,-2.117305 -1.73234,-3.849645 -3.849644,-3.849645 H 16.838943 L 38.781917,58.703827 c 1.539857,-1.539858 1.443616,-3.945886 0,-5.485744 -1.443617,-1.539857 -3.945886,-1.539857 -5.485744,0 z M 16.838943,11.738164 h 9.912835 c 2.117304,0 3.849644,-1.73234 3.849644,-3.8496443 0,-2.1173045 -1.73234,-3.8496445 -3.849644,-3.8496445 H 7.5035553 c -1.0586523,0 -2.0210634,0.3849645 -2.6947512,1.1548934 C 4.0388752,5.8674563 3.6539108,6.8298675 3.6539108,7.8885197 V 27.136742 c 0,2.117305 1.73234,3.849645 3.8496445,3.849645 2.1173044,0 3.8496447,-1.73234 3.8496447,-3.849645 V 17.127666 l 22.231697,22.231697 c 0.769928,0.769929 1.73234,1.154894 2.694751,1.154894 0.962411,0 1.924822,-0.384965 2.694751,-1.154894 1.539858,-1.539858 1.539858,-3.945885 0,-5.485743 z"
     inkscape:connector-curvature="0"
     style="stroke-width:0.96241111;fill:#5fd3bc" /><metadata
     id="metadata3"><rdf:RDF><rdf:Description
         about="https://iconscout.com/legal#licenses"
         dc:title="expand"
         dc:description="expand"
         dc:publisher="Iconscout"
         dc:date="2017-09-24"
         dc:format="image/svg+xml"
         dc:language="en"><dc:creator><rdf:Bag><rdf:li>Amit Jakhu</rdf:li></rdf:Bag></dc:creator></rdf:Description><cc:Work
         rdf:about=""><dc:format>image/svg+xml</dc:format><dc:type
           rdf:resource="http://purl.org/dc/dcmitype/StillImage" /></cc:Work></rdf:RDF></metadata></svg>