<?xml version="1.0" encoding="UTF-8" standalone="no"?>
<!-- Svg Vector Icons : http://www.onlinewebfonts.com/icon -->

<svg
   xmlns:dc="http://purl.org/dc/elements/1.1/"
   xmlns:cc="http://creativecommons.org/ns#"
   xmlns:rdf="http://www.w3.org/1999/02/22-rdf-syntax-ns#"
   xmlns:svg="http://www.w3.org/2000/svg"
   xmlns="http://www.w3.org/2000/svg"
   xmlns:sodipodi="http://sodipodi.sourceforge.net/DTD/sodipodi-0.dtd"
   xmlns:inkscape="http://www.inkscape.org/namespaces/inkscape"
   version="1.1"
   x="0px"
   y="0px"
   viewBox="0 0 1000 1000"
   enable-background="new 0 0 1000 1000"
   xml:space="preserve"
   id="svg8"
   sodipodi:docname="velocity.svg"
   inkscape:version="0.92.4 (5da689c313, 2019-01-14)"><defs
   id="defs12" /><sodipodi:namedview
   pagecolor="#ffffff"
   bordercolor="#666666"
   borderopacity="1"
   objecttolerance="10"
   gridtolerance="10"
   guidetolerance="10"
   inkscape:pageopacity="0"
   inkscape:pageshadow="2"
   inkscape:window-width="1172"
   inkscape:window-height="929"
   id="namedview10"
   showgrid="false"
   inkscape:zoom="0.236"
   inkscape:cx="500"
   inkscape:cy="500"
   inkscape:window-x="2168"
   inkscape:window-y="69"
   inkscape:window-maximized="0"
   inkscape:current-layer="svg8" />
<metadata
   id="metadata2"> Svg Vector Icons : http://www.onlinewebfonts.com/icon <rdf:RDF><cc:Work
     rdf:about=""><dc:format>image/svg+xml</dc:format><dc:type
       rdf:resource="http://purl.org/dc/dcmitype/StillImage" /></cc:Work></rdf:RDF></metadata>
<g
   id="g6"
   style="fill:#ff7f2a"><path
     d="M111.5,911.2c95.8-281,308-784.8,570.3-784.8c109.3,0,170.5,49,245.2,139.3l61.6-48.8c-70.3-85-151.9-168-306.7-168C401.9,48.8,194.9,465.1,89,737.5V10.2H10.7v954.7c-0.3,0.9-0.5,1.7-0.7,2.2l0.7,0.2v22.2h74l1,0.3c0-0.1,0.1-0.2,0.1-0.3H990v-78.3L111.5,911.2L111.5,911.2z M833.3,362.7H480.8v78.3h352.6V362.7z M637.4,872h39.2l195.9-352.6H755l-78.3,195.9h-39.2l-78.3-195.9H441.6L637.4,872z"
     id="path4"
     style="fill:#ff7f2a" /></g>
</svg>